<?xml version="1.0" encoding="UTF-8" standalone="no"?>
<!DOCTYPE svg PUBLIC "-//W3C//DTD SVG 1.1//EN" "http://www.w3.org/Graphics/SVG/1.1/DTD/svg11.dtd">
<svg width="489.36" height="694.56" viewBox="0.00 0.00 2039.00 2894.00" xmlns="http://www.w3.org/2000/svg" xmlns:xlink="http://www.w3.org/1999/xlink">
<g stroke-linecap="round" id="face-fill">
<path d="M653.13,2708.03 L635.36,2564.76 L669.57,2565.05 L653.13,2708.03 Z" fill="none" stroke="rgb(0, 0, 0)" stroke-width="4.00" stroke-opacity="1.00" stroke-linejoin="miter"/>
<path d="M1249.13,2456.03 L1231.36,2307.31 L1265.57,2307.60 L1249.13,2456.03 Z" fill="none" stroke="rgb(0, 0, 0)" stroke-width="4.00" stroke-opacity="1.00" stroke-linejoin="miter"/>
<path d="M413.13,1226.34 C419.61,1226.35 434.36,1229.05 440.99,1231.90 C444.52,1233.44 451.04,1237.22 453.71,1239.46 C456.45,1241.78 461.21,1247.18 462.53,1249.43 C464.36,1252.63 466.58,1260.46 466.60,1263.74 C466.58,1267.03 464.36,1274.85 462.53,1278.06 C461.21,1280.30 456.45,1285.71 453.71,1288.03 C451.04,1290.27 444.52,1294.05 440.99,1295.59 C434.36,1298.44 419.61,1301.13 413.13,1301.15 C406.64,1301.13 391.89,1298.44 385.26,1295.59 C381.73,1294.05 375.21,1290.27 372.54,1288.03 C369.81,1285.71 365.04,1280.30 363.72,1278.06 C361.89,1274.85 359.68,1267.03 359.65,1263.74 C359.68,1260.46 361.89,1252.63 363.72,1249.43 C365.04,1247.18 369.81,1241.78 372.54,1239.46 C375.21,1237.22 381.73,1233.44 385.26,1231.90 C391.89,1229.05 406.64,1226.35 413.13,1226.34 Z" fill="none" stroke="rgb(0, 0, 0)" stroke-width="4.00" stroke-opacity="1.00" stroke-linejoin="round"/>
<path d="M738.13,1224.34 C744.61,1224.35 759.36,1227.05 765.99,1229.90 C769.52,1231.44 776.04,1235.22 778.71,1237.46 C781.45,1239.78 786.21,1245.18 787.53,1247.43 C789.36,1250.63 791.58,1258.46 791.60,1261.74 C791.58,1265.03 789.36,1272.85 787.53,1276.06 C786.21,1278.30 781.45,1283.71 778.71,1286.03 C776.04,1288.27 769.52,1292.05 765.99,1293.59 C759.36,1296.44 744.61,1299.13 738.13,1299.15 C731.64,1299.13 716.89,1296.44 710.26,1293.59 C706.73,1292.05 700.21,1288.27 697.54,1286.03 C694.81,1283.71 690.04,1278.30 688.72,1276.06 C686.89,1272.85 684.68,1265.03 684.65,1261.74 C684.68,1258.46 686.89,1250.63 688.72,1247.43 C690.04,1245.18 694.81,1239.78 697.54,1237.46 C700.21,1235.22 706.73,1231.44 710.26,1229.90 C716.89,1227.05 731.64,1224.35 738.13,1224.34 Z" fill="none" stroke="rgb(0, 0, 0)" stroke-width="4.00" stroke-opacity="1.00" stroke-linejoin="round"/>
</g>
</svg>
