<?xml version="1.0" encoding="UTF-8" standalone="no"?>
<!DOCTYPE svg PUBLIC "-//W3C//DTD SVG 1.1//EN" "http://www.w3.org/Graphics/SVG/1.1/DTD/svg11.dtd">
<svg width="489.36" height="694.56" viewBox="0.00 0.00 2039.00 2894.00" xmlns="http://www.w3.org/2000/svg" xmlns:xlink="http://www.w3.org/1999/xlink">
<g stroke-linecap="round" transform="translate(20.00, -804.00)" id="highlight-preview-fill">
<path d="M300.29,1278.48 C301.86,1278.78 305.40,1280.40 306.64,1281.38 C307.86,1282.39 310.11,1285.50 310.69,1286.94 C311.22,1288.40 311.58,1292.17 311.34,1293.69 C311.05,1295.20 309.42,1298.61 308.42,1299.80 C307.39,1300.96 304.20,1303.11 302.72,1303.65 C301.21,1304.15 297.33,1304.46 295.75,1304.20 C294.19,1303.90 290.64,1302.28 289.40,1301.30 C288.18,1300.29 285.93,1297.18 285.35,1295.74 C284.82,1294.28 284.46,1290.51 284.70,1288.99 C284.99,1287.48 286.62,1284.07 287.62,1282.88 C288.65,1281.72 291.84,1279.57 293.33,1279.03 C294.83,1278.53 298.71,1278.23 300.29,1278.48 Z" fill="none" stroke="rgb(0, 0, 0)" stroke-width="4.00" stroke-opacity="1.00" stroke-linejoin="round"/>
<path d="M315.65,1299.39 C316.90,1299.63 319.46,1301.21 320.21,1302.20 C320.93,1303.22 321.61,1306.06 321.42,1307.27 C321.18,1308.46 319.58,1310.91 318.55,1311.62 C317.51,1312.29 314.56,1312.90 313.31,1312.70 C312.06,1312.46 309.50,1310.88 308.74,1309.89 C308.03,1308.87 307.35,1306.03 307.54,1304.82 C307.78,1303.63 309.38,1301.18 310.40,1300.47 C311.45,1299.80 314.40,1299.19 315.65,1299.39 Z" fill="none" stroke="rgb(0, 0, 0)" stroke-width="4.00" stroke-opacity="1.00" stroke-linejoin="round"/>
<path d="M522.26,1278.00 C523.86,1277.96 527.66,1278.79 529.08,1279.49 C530.48,1280.23 533.35,1282.79 534.21,1284.08 C535.04,1285.39 536.19,1288.99 536.27,1290.53 C536.31,1292.07 535.44,1295.75 534.71,1297.12 C533.95,1298.48 531.29,1301.25 529.95,1302.09 C528.59,1302.90 524.85,1304.02 523.26,1304.10 C521.67,1304.14 517.86,1303.31 516.44,1302.61 C515.04,1301.87 512.17,1299.31 511.31,1298.02 C510.48,1296.71 509.33,1293.11 509.25,1291.57 C509.21,1290.03 510.08,1286.35 510.81,1284.98 C511.57,1283.62 514.23,1280.85 515.57,1280.01 C516.93,1279.20 520.67,1278.08 522.26,1278.00 Z" fill="none" stroke="rgb(0, 0, 0)" stroke-width="4.00" stroke-opacity="1.00" stroke-linejoin="round"/>
<path d="M541.70,1295.19 C542.97,1295.17 545.80,1296.17 546.75,1296.98 C547.66,1297.82 548.92,1300.46 548.99,1301.68 C549.02,1302.90 547.96,1305.62 547.11,1306.53 C546.23,1307.41 543.48,1308.63 542.21,1308.70 C540.94,1308.73 538.11,1307.72 537.16,1306.91 C536.25,1306.07 534.98,1303.43 534.92,1302.22 C534.89,1301.00 535.95,1298.27 536.79,1297.36 C537.68,1296.48 540.43,1295.26 541.70,1295.19 Z" fill="none" stroke="rgb(0, 0, 0)" stroke-width="4.00" stroke-opacity="1.00" stroke-linejoin="round"/>
</g>
</svg>
