<?xml version="1.0" encoding="UTF-8" standalone="no"?>
<!DOCTYPE svg PUBLIC "-//W3C//DTD SVG 1.1//EN" "http://www.w3.org/Graphics/SVG/1.1/DTD/svg11.dtd">
<svg width="489.36" height="694.56" viewBox="0.00 0.00 2039.00 2894.00" xmlns="http://www.w3.org/2000/svg" xmlns:xlink="http://www.w3.org/1999/xlink">
<g stroke-linecap="round" id="pupil-fill">
<path d="M439.82,1116.08 C465.43,1114.66 489.35,1137.10 488.27,1167.68 C481.03,1154.32 466.28,1153.91 459.31,1162.12 C458.56,1185.88 422.69,1184.29 421.99,1164.34 C411.29,1157.72 400.60,1158.97 393.62,1170.07 C390.19,1145.03 412.59,1116.88 439.82,1116.08 Z" fill="none" stroke="rgb(0, 0, 0)" stroke-width="4.00" stroke-opacity="1.00" stroke-linejoin="round"/>
<path d="M716.18,1116.08 C690.57,1114.66 666.65,1137.10 667.73,1167.68 C674.97,1154.32 689.72,1153.91 696.69,1162.12 C697.44,1185.88 733.31,1184.29 734.01,1164.34 C744.71,1157.72 755.40,1158.97 762.38,1170.07 C765.81,1145.03 743.41,1116.88 716.18,1116.08 Z" fill="none" stroke="rgb(0, 0, 0)" stroke-width="4.00" stroke-opacity="1.00" stroke-linejoin="round"/>
</g>
</svg>
