<?xml version="1.0" encoding="UTF-8" standalone="no"?>
<!DOCTYPE svg PUBLIC "-//W3C//DTD SVG 1.1//EN" "http://www.w3.org/Graphics/SVG/1.1/DTD/svg11.dtd">
<svg width="489.36" height="694.56" viewBox="0.00 0.00 2039.00 2894.00" xmlns="http://www.w3.org/2000/svg" xmlns:xlink="http://www.w3.org/1999/xlink">
<g stroke-linecap="round" id="03-stroke">
<path d="M1214.48,467.46 C1204.46,554.58 1195.27,650.50 1171.42,706.42 C1108.63,844.50 1113.09,960.62 1200.71,1006.72 C1200.71,1006.72 1216.11,1012.88 1216.11,1012.88" fill="none" stroke="rgb(0, 0, 0)" stroke-width="4.00" stroke-opacity="1.00" stroke-linejoin="round"/>
<path d="M1675.52,468.46 C1685.54,555.58 1694.73,651.50 1718.58,707.42 C1781.37,845.50 1776.91,961.62 1689.29,1007.72 C1689.29,1007.72 1673.89,1013.88 1673.89,1013.88" fill="none" stroke="rgb(0, 0, 0)" stroke-width="4.00" stroke-opacity="1.00" stroke-linejoin="round"/>
<path d="M1214.48,1558.54 C1204.46,1471.42 1195.27,1375.50 1171.42,1319.58 C1108.63,1181.50 1113.09,1065.38 1200.71,1019.28 C1200.71,1019.28 1216.11,1013.12 1216.11,1013.12" fill="none" stroke="rgb(0, 0, 0)" stroke-width="4.00" stroke-opacity="1.00" stroke-linejoin="round"/>
<path d="M1675.52,1557.54 C1685.54,1470.42 1694.73,1374.50 1718.58,1318.58 C1781.37,1180.50 1776.91,1064.38 1689.29,1018.28 C1689.29,1018.28 1673.89,1012.12 1673.89,1012.12" fill="none" stroke="rgb(0, 0, 0)" stroke-width="4.00" stroke-opacity="1.00" stroke-linejoin="round"/>
<path d="M1216.60,1559.01 L1674.14,1559.42" fill="none" stroke="rgb(0, 0, 0)" stroke-width="4.00" stroke-opacity="1.00" stroke-linejoin="round"/>
<path d="M1214.42,466.55 L1147.54,428.99 L1171.14,270.02 L1248.91,251.89 L1451.94,133.10 L1642.24,249.99 L1711.70,271.36 L1734.04,425.35 L1678.69,466.21 L1678.69,466.22" fill="none" stroke="rgb(0, 0, 0)" stroke-width="4.00" stroke-opacity="1.00" stroke-linejoin="miter"/>
</g>
</svg>
