<?xml version="1.0" encoding="UTF-8" standalone="no"?>
<!DOCTYPE svg PUBLIC "-//W3C//DTD SVG 1.1//EN" "http://www.w3.org/Graphics/SVG/1.1/DTD/svg11.dtd">
<svg width="489.36" height="694.56" viewBox="0.00 0.00 2039.00 2894.00" xmlns="http://www.w3.org/2000/svg" xmlns:xlink="http://www.w3.org/1999/xlink">
<g stroke-linecap="round" id="bang-03-stroke">
<path d="M216.11,134.76 C120.15,219.64 100.22,353.75 127.28,467.18 C127.28,467.18 152.30,419.49 174.14,396.63 C190.74,428.06 210.78,453.67 232.78,476.18 C251.89,404.78 265.63,364.74 304.82,294.63 C314.83,367.28 331.41,403.60 354.48,449.76 C354.48,449.76 380.32,406.72 380.32,406.72 C391.81,430.68 411.07,454.41 427.32,469.22 C444.98,450.49 458.27,431.34 467.77,408.34 C467.77,408.34 500.58,449.92 500.58,449.92 C523.68,398.27 536.63,357.24 542.61,293.78 C586.68,363.83 601.65,405.72 619.77,476.13 C643.37,448.24 655.53,423.91 664.42,390.06 C692.33,414.56 722.68,465.05 722.68,465.05 C743.10,332.31 725.81,212.08 632.21,135.94 C632.21,135.94 429.25,158.17 429.25,158.17 C429.25,158.17 216.11,134.76 216.11,134.76 Z" fill="none" stroke="rgb(0, 0, 0)" stroke-width="4.00" stroke-opacity="1.00" stroke-linejoin="round"/>
</g>
</svg>
