<?xml version="1.0" encoding="UTF-8" standalone="no"?>
<!DOCTYPE svg PUBLIC "-//W3C//DTD SVG 1.1//EN" "http://www.w3.org/Graphics/SVG/1.1/DTD/svg11.dtd">
<svg width="489.36" height="694.56" viewBox="0.00 0.00 2039.00 2894.00" xmlns="http://www.w3.org/2000/svg" xmlns:xlink="http://www.w3.org/1999/xlink">
<g stroke-linecap="round" id="skin">
<path d="M492.92,506.32 L492.93,262.80 L794.90,106.34 L1013.95,179.87 L1209.53,272.19 L1401.79,178.03 L1625.03,107.12 L1923.51,262.80 L1922.17,504.15 L1778.28,522.53 L1834.04,540.32 L1849.21,628.56 L1617.49,639.52 L1407.51,614.90 L1210.32,549.91 L1012.10,613.07 L796.40,637.86 L572.47,627.48 L584.02,537.13 L657.69,519.98 L492.92,506.32 Z" fill="none" stroke="rgb(0, 0, 0)" stroke-width="4.00" stroke-opacity="1.00" stroke-linejoin="miter"/>
<path d="M153.21,1480.41 L172.10,1807.85 L429.58,1785.57 L775.53,1782.34 L1022.58,1807.10 L1045.22,1481.37 L889.74,1486.38 L800.67,1440.52 L600.73,1396.77 L398.38,1440.36 L305.50,1488.18 L153.21,1480.41 Z" fill="none" stroke="rgb(0, 0, 0)" stroke-width="4.00" stroke-opacity="1.00" stroke-linejoin="miter"/>
<path d="M1140.77,1310.52 L1254.74,962.67 L1575.05,959.97 L1690.86,1307.28 L1743.57,1036.67 L1636.37,854.39 L1448.65,722.85 L1383.30,723.93 L1195.87,850.86 L1087.30,1034.51 L1140.77,1310.52 Z" fill="none" stroke="rgb(0, 0, 0)" stroke-width="4.00" stroke-opacity="1.00" stroke-linejoin="miter"/>
<path d="M1829.01,1334.05 L1829.14,1834.76 L1495.45,1785.81 L1266.30,1812.82 L1267.46,1362.64 L1493.98,1383.29 L1829.01,1334.05 Z" fill="none" stroke="rgb(0, 0, 0)" stroke-width="4.00" stroke-opacity="1.00" stroke-linejoin="miter"/>
<path d="M78.32,2007.53 L173.53,1989.09 L275.37,1884.21 L381.50,1883.65 L480.60,2005.42 L452.66,2153.69 L375.75,2184.25 L215.12,2185.82 L103.98,2162.78 L78.32,2007.53 Z" fill="none" stroke="rgb(0, 0, 0)" stroke-width="4.00" stroke-opacity="1.00" stroke-linejoin="miter"/>
<path d="M1921.68,2595.53 L1826.47,2577.09 L1726.65,2474.23 L1625.07,2473.17 L1519.40,2593.42 L1547.34,2741.69 L1624.25,2772.25 L1784.88,2773.82 L1896.02,2750.78 L1921.68,2595.53 Z" fill="none" stroke="rgb(0, 0, 0)" stroke-width="4.00" stroke-opacity="1.00" stroke-linejoin="miter"/>
<path d="M549.93,2247.36 L462.96,2520.54 L175.07,2625.44 L319.06,2805.99 L534.34,2730.70 L780.36,2733.63 L986.07,2811.05 L1129.87,2626.24 L847.96,2521.78 L760.27,2246.23 L549.93,2247.36 Z" fill="none" stroke="rgb(0, 0, 0)" stroke-width="4.00" stroke-opacity="1.00" stroke-linejoin="miter"/>
<path d="M812.60,2100.96 L1065.81,2286.55 L1117.58,2522.58 L1373.92,2520.66 L1429.12,2287.53 L1681.90,2110.24 L1462.03,1891.53 L1332.60,1980.39 L1161.54,1981.12 L1035.94,1886.24 L812.60,2100.96 Z" fill="none" stroke="rgb(0, 0, 0)" stroke-width="4.00" stroke-opacity="1.00" stroke-linejoin="miter"/>
<path d="M429.79,787.65 L646.00,731.49 L823.57,851.97 L864.24,1034.15 L838.02,1183.75 L801.51,1281.60 L718.22,1330.74 L426.88,1327.95 L348.58,1281.82 L319.91,1190.62 L290.56,1031.74 L337.35,833.85 L568.39,1003.59 L429.79,787.65 Z" fill="none" stroke="rgb(0, 0, 0)" stroke-width="4.00" stroke-opacity="1.00" stroke-linejoin="miter"/>
<path d="M868.67,1191.98 L911.89,1154.70 L996.72,1178.48 L1016.71,1269.78 L963.76,1330.30 L881.64,1333.00 L868.67,1191.98 Z" fill="none" stroke="rgb(0, 0, 0)" stroke-width="4.00" stroke-opacity="1.00" stroke-linejoin="miter"/>
<path d="M271.65,1320.75 L263.40,1174.12 L223.58,1145.47 L148.81,1169.75 L125.50,1252.29 L191.05,1328.52 L271.65,1320.75 Z" fill="none" stroke="rgb(0, 0, 0)" stroke-width="4.00" stroke-opacity="1.00" stroke-linejoin="miter"/>
</g>
</svg>
