<?xml version="1.0" encoding="UTF-8" standalone="no"?>
<!DOCTYPE svg PUBLIC "-//W3C//DTD SVG 1.1//EN" "http://www.w3.org/Graphics/SVG/1.1/DTD/svg11.dtd">
<svg width="489.36" height="694.56" viewBox="0.00 0.00 2039.00 2894.00" xmlns="http://www.w3.org/2000/svg" xmlns:xlink="http://www.w3.org/1999/xlink">
<g stroke-linecap="round" id="skin-preview">
<path d="M338.00,656.88 C338.00,656.88 342.28,638.24 342.28,638.24 C342.28,638.24 514.69,640.08 514.69,640.08 C514.69,640.08 518.97,657.03 518.97,657.03 C518.97,657.03 741.35,775.63 741.35,775.63 C741.35,775.63 796.97,764.11 796.97,764.11 C796.97,764.11 739.85,785.33 739.85,785.33 C739.85,785.33 730.10,806.42 730.10,806.42 C748.10,813.90 748.92,832.78 742.35,851.29 C742.35,851.29 563.47,791.67 563.47,791.67 C563.47,791.67 599.55,917.93 599.55,917.93 C599.55,917.93 553.72,1101.14 553.72,1101.14 C553.23,1163.35 434.98,1164.67 431.20,1101.82 C426.94,1164.11 307.45,1164.20 305.43,1100.82 C305.43,1100.82 257.33,914.93 257.33,914.93 C257.33,914.93 295.41,790.66 295.41,790.66 C295.41,790.66 116.86,850.01 116.86,850.01 C107.00,831.01 111.96,812.23 128.42,807.15 C128.42,807.15 118.16,784.20 118.16,784.20 C118.16,784.20 65.93,762.61 65.93,762.61 C65.93,762.61 118.71,774.44 118.71,774.44 C118.71,774.44 338.00,656.88 338.00,656.88 Z" fill="none" stroke="rgb(0, 0, 0)" stroke-width="4.00" stroke-opacity="1.00" stroke-linejoin="round"/>
</g>
</svg>
