<?xml version="1.0" encoding="UTF-8" standalone="no"?>
<!DOCTYPE svg PUBLIC "-//W3C//DTD SVG 1.1//EN" "http://www.w3.org/Graphics/SVG/1.1/DTD/svg11.dtd">
<svg width="489.36" height="694.56" viewBox="0.00 0.00 2039.00 2894.00" xmlns="http://www.w3.org/2000/svg" xmlns:xlink="http://www.w3.org/1999/xlink">
<g stroke-linecap="round" id="skin2-preview-fill">
<path d="M201.64,426.71 C140.72,418.46 97.13,461.64 115.22,524.15 C137.05,576.26 178.54,587.05 215.40,574.79 C215.40,574.79 219.25,624.33 219.25,624.33 C238.52,669.29 611.01,671.69 635.41,626.53 C635.41,626.53 637.06,573.69 637.06,573.69 C674.52,590.05 724.22,579.56 740.00,520.29 C753.61,465.35 714.40,430.44 650.67,430.02 C650.67,430.02 689.85,352.03 652.47,262.12 C619.26,183.04 522.99,160.31 430.63,160.84 C345.32,161.09 221.64,177.54 191.18,257.72 C157.42,350.38 201.64,426.71 201.64,426.71 Z" fill="none" stroke="rgb(0, 0, 0)" stroke-width="4.00" stroke-opacity="1.00" stroke-linejoin="round"/>
</g>
</svg>
