<?xml version="1.0" encoding="UTF-8" standalone="no"?>
<!DOCTYPE svg PUBLIC "-//W3C//DTD SVG 1.1//EN" "http://www.w3.org/Graphics/SVG/1.1/DTD/svg11.dtd">
<svg width="489.36" height="694.56" viewBox="0.00 0.00 2039.00 2894.00" xmlns="http://www.w3.org/2000/svg" xmlns:xlink="http://www.w3.org/1999/xlink">
<g stroke-linecap="round" id="face-preview-fill">
<path d="M265.13,575.34 C271.61,575.35 286.36,578.05 292.99,580.90 C296.52,582.44 303.04,586.22 305.71,588.46 C308.45,590.78 313.21,596.18 314.53,598.43 C316.36,601.63 318.58,609.46 318.60,612.74 C318.58,616.03 316.36,623.85 314.53,627.06 C313.21,629.30 308.45,634.71 305.71,637.03 C303.04,639.27 296.52,643.05 292.99,644.59 C286.36,647.44 271.61,650.13 265.13,650.15 C258.64,650.13 243.89,647.44 237.26,644.59 C233.73,643.05 227.21,639.27 224.54,637.03 C221.81,634.71 217.04,629.30 215.72,627.06 C213.89,623.85 211.68,616.03 211.65,612.74 C211.68,609.46 213.89,601.63 215.72,598.43 C217.04,596.18 221.81,590.78 224.54,588.46 C227.21,586.22 233.73,582.44 237.26,580.90 C243.89,578.05 258.64,575.35 265.13,575.34 Z" fill="none" stroke="rgb(0, 0, 0)" stroke-width="4.00" stroke-opacity="1.00" stroke-linejoin="round"/>
<path d="M590.13,573.34 C596.61,573.35 611.36,576.05 617.99,578.90 C621.52,580.44 628.04,584.22 630.71,586.46 C633.45,588.78 638.21,594.18 639.53,596.43 C641.36,599.63 643.58,607.46 643.60,610.74 C643.58,614.03 641.36,621.85 639.53,625.06 C638.21,627.30 633.45,632.71 630.71,635.03 C628.04,637.27 621.52,641.05 617.99,642.59 C611.36,645.44 596.61,648.13 590.13,648.15 C583.64,648.13 568.89,645.44 562.26,642.59 C558.73,641.05 552.21,637.27 549.54,635.03 C546.81,632.71 542.04,627.30 540.72,625.06 C538.89,621.85 536.68,614.03 536.65,610.74 C536.68,607.46 538.89,599.63 540.72,596.43 C542.04,594.18 546.81,588.78 549.54,586.46 C552.21,584.22 558.73,580.44 562.26,578.90 C568.89,576.05 583.64,573.35 590.13,573.34 Z" fill="none" stroke="rgb(0, 0, 0)" stroke-width="4.00" stroke-opacity="1.00" stroke-linejoin="round"/>
</g>
</svg>
