<?xml version="1.0" encoding="UTF-8" standalone="no"?>
<!DOCTYPE svg PUBLIC "-//W3C//DTD SVG 1.1//EN" "http://www.w3.org/Graphics/SVG/1.1/DTD/svg11.dtd">
<svg width="489.36" height="694.56" viewBox="0.00 0.00 2039.00 2894.00" xmlns="http://www.w3.org/2000/svg" xmlns:xlink="http://www.w3.org/1999/xlink">
<g stroke-linecap="round" id="hair">
<path d="M492.92,506.32 L492.93,262.80 L794.90,106.34 L1013.95,179.87 L1209.53,272.19 L1401.79,178.03 L1625.03,107.12 L1923.51,262.80 L1922.17,504.15 L1778.28,522.53 L1834.04,540.32 L1849.21,628.56 L1617.49,639.52 L1407.51,614.90 L1210.32,549.91 L1012.10,613.07 L796.40,637.86 L572.47,627.48 L584.02,537.13 L657.69,519.98 L492.92,506.32 Z" fill="none" stroke="rgb(0, 0, 0)" stroke-width="4.00" stroke-opacity="1.00" stroke-linejoin="miter"/>
<path d="M1140.77,1310.52 L1254.74,962.67 L1575.05,959.97 L1690.86,1307.28 L1743.57,1036.67 L1636.37,854.39 L1448.65,722.85 L1383.30,723.93 L1195.87,850.86 L1087.30,1034.51 L1140.77,1310.52 Z" fill="none" stroke="rgb(0, 0, 0)" stroke-width="4.00" stroke-opacity="1.00" stroke-linejoin="miter"/>
<path d="M1829.01,1334.05 L1829.14,1834.76 L1495.45,1785.81 L1266.30,1812.82 L1267.46,1362.64 L1493.98,1383.29 L1829.01,1334.05 Z" fill="none" stroke="rgb(0, 0, 0)" stroke-width="4.00" stroke-opacity="1.00" stroke-linejoin="miter"/>
</g>
</svg>
