<?xml version="1.0" encoding="UTF-8" standalone="no"?>
<!DOCTYPE svg PUBLIC "-//W3C//DTD SVG 1.1//EN" "http://www.w3.org/Graphics/SVG/1.1/DTD/svg11.dtd">
<svg width="489.36" height="694.56" viewBox="0.00 0.00 2039.00 2894.00" xmlns="http://www.w3.org/2000/svg" xmlns:xlink="http://www.w3.org/1999/xlink">
<g stroke-linecap="round" id="highlight-fill">
<path d="M439.53,1122.28 C441.13,1122.29 444.90,1123.27 446.29,1124.02 C447.66,1124.81 450.42,1127.48 451.24,1128.80 C452.02,1130.15 453.03,1133.79 453.05,1135.33 C453.03,1136.87 452.02,1140.51 451.24,1141.86 C450.42,1143.18 447.66,1145.85 446.29,1146.64 C444.90,1147.39 441.13,1148.37 439.53,1148.39 C437.93,1148.37 434.16,1147.39 432.77,1146.64 C431.40,1145.85 428.63,1143.18 427.82,1141.86 C427.04,1140.51 426.03,1136.87 426.01,1135.33 C426.03,1133.79 427.04,1130.15 427.82,1128.80 C428.63,1127.48 431.40,1124.81 432.77,1124.02 C434.16,1123.27 437.93,1122.29 439.53,1122.28 Z" fill="none" stroke="rgb(0, 0, 0)" stroke-width="4.00" stroke-opacity="1.00" stroke-linejoin="round"/>
<path d="M458.29,1140.20 C459.56,1140.22 462.36,1141.33 463.27,1142.18 C464.15,1143.05 465.31,1145.73 465.33,1146.95 C465.31,1148.17 464.15,1150.86 463.27,1151.73 C462.36,1152.58 459.56,1153.69 458.29,1153.71 C457.02,1153.69 454.23,1152.58 453.31,1151.73 C452.43,1150.86 451.27,1148.17 451.25,1146.95 C451.27,1145.73 452.43,1143.05 453.31,1142.18 C454.23,1141.33 457.02,1140.22 458.29,1140.20 Z" fill="none" stroke="rgb(0, 0, 0)" stroke-width="4.00" stroke-opacity="1.00" stroke-linejoin="round"/>
<path d="M717.72,1122.54 C719.30,1122.78 722.91,1124.26 724.19,1125.19 C725.44,1126.16 727.81,1129.18 728.44,1130.60 C729.03,1132.04 729.54,1135.78 729.35,1137.31 C729.12,1138.84 727.62,1142.31 726.67,1143.53 C725.68,1144.74 722.58,1147.00 721.11,1147.60 C719.63,1148.15 715.76,1148.61 714.18,1148.41 C712.60,1148.18 709.00,1146.70 707.72,1145.76 C706.47,1144.79 704.09,1141.78 703.46,1140.35 C702.87,1138.92 702.37,1135.17 702.56,1133.64 C702.78,1132.12 704.28,1128.64 705.24,1127.42 C706.22,1126.22 709.32,1123.95 710.79,1123.36 C712.27,1122.80 716.14,1122.34 717.72,1122.54 Z" fill="none" stroke="rgb(0, 0, 0)" stroke-width="4.00" stroke-opacity="1.00" stroke-linejoin="round"/>
<path d="M733.88,1142.84 C735.14,1143.04 737.75,1144.52 738.54,1145.48 C739.30,1146.47 740.08,1149.29 739.94,1150.50 C739.75,1151.70 738.24,1154.20 737.25,1154.95 C736.23,1155.67 733.31,1156.39 732.04,1156.24 C730.79,1156.04 728.17,1154.56 727.38,1153.60 C726.62,1152.61 725.84,1149.79 725.98,1148.58 C726.17,1147.38 727.68,1144.88 728.68,1144.13 C729.70,1143.41 732.62,1142.69 733.88,1142.84 Z" fill="none" stroke="rgb(0, 0, 0)" stroke-width="4.00" stroke-opacity="1.00" stroke-linejoin="round"/>
</g>
</svg>
