<?xml version="1.0" encoding="UTF-8" standalone="no"?>
<!DOCTYPE svg PUBLIC "-//W3C//DTD SVG 1.1//EN" "http://www.w3.org/Graphics/SVG/1.1/DTD/svg11.dtd">
<svg width="489.36" height="694.56" viewBox="0.00 0.00 2039.00 2894.00" xmlns="http://www.w3.org/2000/svg" xmlns:xlink="http://www.w3.org/1999/xlink">
<g stroke-linecap="round" id="line">
<path d="M1206.98,584.95 L1106.02,623.08 L1004.97,591.85 L978.74,653.06 L827.70,666.64 L796.15,617.32 L755.29,675.69 L590.67,610.63 L604.25,553.50 L722.60,510.96 L511.65,488.08 L456.22,454.73 L456.00,315.66 L512.39,278.59 L517.74,213.06 L719.60,109.08 L795.65,132.31 L1005.41,201.42 L1124.64,192.00 L1207.28,235.07" fill="none" stroke="rgb(0, 0, 0)" stroke-width="4.00" stroke-opacity="1.00" stroke-linejoin="miter"/>
<path d="M1209.02,584.95 L1309.98,623.08 L1411.03,591.85 L1437.26,653.06 L1588.30,666.64 L1619.85,617.32 L1660.71,675.69 L1825.33,610.63 L1811.75,553.50 L1693.40,510.96 L1904.35,488.08 L1959.78,454.73 L1960.00,315.66 L1903.61,278.59 L1898.26,213.06 L1696.40,109.08 L1620.35,132.31 L1410.59,201.42 L1291.36,192.00 L1208.72,235.07" fill="none" stroke="rgb(0, 0, 0)" stroke-width="4.00" stroke-opacity="1.00" stroke-linejoin="miter"/>
<path d="M1208.60,236.20 L1208.74,298.97" fill="none" stroke="rgb(0, 0, 0)" stroke-width="4.00" stroke-opacity="1.00" stroke-linejoin="miter"/>
<path d="M1208.91,528.68 L1207.77,584.75" fill="none" stroke="rgb(0, 0, 0)" stroke-width="4.00" stroke-opacity="1.00" stroke-linejoin="miter"/>
<path d="M682.92,608.75 L686.22,620.97 L744.36,626.25 L749.98,612.71" fill="none" stroke="rgb(0, 0, 0)" stroke-width="4.00" stroke-opacity="1.00" stroke-linejoin="miter"/>
<path d="M1070.53,570.67 L1084.74,580.79 L1143.32,559.97 L1144.48,545.57" fill="none" stroke="rgb(0, 0, 0)" stroke-width="4.00" stroke-opacity="1.00" stroke-linejoin="miter"/>
<path d="M1730.08,608.75 L1726.78,620.97 L1668.64,626.25 L1663.02,612.71" fill="none" stroke="rgb(0, 0, 0)" stroke-width="4.00" stroke-opacity="1.00" stroke-linejoin="miter"/>
<path d="M1342.47,570.67 L1328.26,580.79 L1269.68,559.97 L1268.52,545.57" fill="none" stroke="rgb(0, 0, 0)" stroke-width="4.00" stroke-opacity="1.00" stroke-linejoin="miter"/>
<path d="M845.94,1551.96 L911.38,1557.88" fill="none" stroke="rgb(0, 0, 0)" stroke-width="4.00" stroke-opacity="1.00" stroke-linejoin="round"/>
<path d="M597.44,1417.43 L789.59,1459.22 L835.11,1424.52 L889.21,1454.37 L883.99,1505.49 L1025.40,1500.26 L1005.25,1783.83 L770.82,1761.94 L684.00,1762.19" fill="none" stroke="rgb(0, 0, 0)" stroke-width="4.00" stroke-opacity="1.00" stroke-linejoin="miter"/>
<path d="M598.56,1418.43 L406.41,1460.22 L360.89,1425.52 L306.79,1455.37 L312.01,1506.49 L170.60,1501.26 L190.75,1784.83 L425.18,1762.94 L512.00,1763.19" fill="none" stroke="rgb(0, 0, 0)" stroke-width="4.00" stroke-opacity="1.00" stroke-linejoin="miter"/>
<path d="M512.89,1761.47 C512.89,1761.47 513.48,1608.46 513.48,1608.46 C513.08,1510.02 685.47,1508.67 684.80,1608.78 C684.80,1608.78 684.35,1762.25 684.35,1762.25" fill="none" stroke="rgb(0, 0, 0)" stroke-width="4.00" stroke-opacity="1.00" stroke-linejoin="round"/>
<path d="M346.06,1552.96 L280.62,1558.88" fill="none" stroke="rgb(0, 0, 0)" stroke-width="4.00" stroke-opacity="1.00" stroke-linejoin="round"/>
<path d="M1418.13,941.03 L1240.78,941.55 L1144.09,1250.39 L1125.35,1149.27 L1080.85,1148.49 L1071.84,1099.89 L1111.59,1084.88 L1104.34,1037.59 L1206.17,865.90 L1267.05,821.98 L1245.55,771.20 L1293.43,739.76 L1331.12,776.86 L1385.60,742.24 L1416.56,886.78" fill="none" stroke="rgb(0, 0, 0)" stroke-width="4.00" stroke-opacity="1.00" stroke-linejoin="miter"/>
<path d="M1412.87,941.03 L1590.22,941.55 L1686.91,1250.39 L1705.65,1149.27 L1750.15,1148.49 L1759.16,1099.89 L1719.41,1084.88 L1726.66,1037.59 L1624.83,865.90 L1563.95,821.98 L1585.45,771.20 L1537.57,739.76 L1499.88,776.86 L1445.40,742.24 L1389.61,760.44" fill="none" stroke="rgb(0, 0, 0)" stroke-width="4.00" stroke-opacity="1.00" stroke-linejoin="miter"/>
<path d="M1285.51,1499.13 L1285.92,1385.27 L1497.69,1405.20 L1809.11,1354.37 L1883.00,1384.71 L1881.92,1781.30 L1809.46,1815.03 L1499.51,1766.12 L1286.44,1787.54 L1286.43,1673.24" fill="none" stroke="rgb(0, 0, 0)" stroke-width="4.00" stroke-opacity="1.00" stroke-linejoin="miter"/>
<path d="M1287.63,1499.32 C1287.63,1499.32 1352.66,1499.32 1352.66,1499.32 C1455.16,1499.04 1455.51,1674.17 1352.05,1673.67 C1352.05,1673.67 1287.01,1674.88 1287.01,1674.88" fill="none" stroke="rgb(0, 0, 0)" stroke-width="4.00" stroke-opacity="1.00" stroke-linejoin="round"/>
<path d="M281.70,1904.86 C281.70,1904.86 213.39,1882.22 213.39,1882.22 C213.39,1882.22 175.14,1917.74 175.14,1917.74 C175.14,1917.74 196.67,1993.20 196.67,1993.20 C196.67,1993.20 184.93,2004.72 184.93,2004.72 C184.93,2004.72 97.52,2022.05 97.52,2022.05 C97.52,2022.05 119.77,2150.92 119.77,2150.92 C119.77,2150.92 215.41,2168.09 215.41,2168.09 C241.30,2163.67 248.85,2156.57 247.08,2135.42 C247.08,2135.42 280.92,2134.76 280.92,2134.76 C280.19,2184.87 373.15,2183.33 372.44,2136.02 C372.44,2136.02 440.47,2136.42 440.47,2136.42 C440.47,2136.42 493.35,2123.77 493.35,2123.77 C493.35,2123.77 508.16,2043.30 508.16,2043.30 C508.16,2043.30 465.01,2009.17 465.01,2009.17 C465.01,2009.17 452.43,1994.39 452.43,1994.39 C452.43,1994.39 471.79,1919.30 471.79,1919.30 C471.79,1919.30 434.32,1883.39 434.32,1883.39 C434.32,1883.39 372.26,1904.78 372.26,1904.78 C372.26,1904.78 281.70,1904.86 281.70,1904.86 Z" fill="none" stroke="rgb(0, 0, 0)" stroke-width="4.00" stroke-opacity="1.00" stroke-linejoin="round"/>
<path d="M1721.30,2493.86 C1721.30,2493.86 1789.61,2471.22 1789.61,2471.22 C1789.61,2471.22 1827.86,2506.74 1827.86,2506.74 C1827.86,2506.74 1806.33,2582.20 1806.33,2582.20 C1806.33,2582.20 1818.07,2593.72 1818.07,2593.72 C1818.07,2593.72 1905.48,2611.05 1905.48,2611.05 C1905.48,2611.05 1883.23,2739.92 1883.23,2739.92 C1883.23,2739.92 1787.59,2757.09 1787.59,2757.09 C1761.70,2752.67 1754.15,2745.57 1755.92,2724.42 C1755.92,2724.42 1722.08,2723.76 1722.08,2723.76 C1722.81,2773.87 1629.85,2772.33 1630.56,2725.02 C1630.56,2725.02 1562.53,2725.42 1562.53,2725.42 C1562.53,2725.42 1509.65,2712.77 1509.65,2712.77 C1509.65,2712.77 1494.84,2632.30 1494.84,2632.30 C1494.84,2632.30 1537.99,2598.17 1537.99,2598.17 C1537.99,2598.17 1550.57,2583.39 1550.57,2583.39 C1550.57,2583.39 1531.21,2508.30 1531.21,2508.30 C1531.21,2508.30 1568.68,2472.39 1568.68,2472.39 C1568.68,2472.39 1630.74,2493.78 1630.74,2493.78 C1630.74,2493.78 1721.30,2493.86 1721.30,2493.86 Z" fill="none" stroke="rgb(0, 0, 0)" stroke-width="4.00" stroke-opacity="1.00" stroke-linejoin="round"/>
<path d="M591.21,2246.48 C591.21,2246.48 591.46,2267.18 591.46,2267.18 C591.46,2267.18 564.79,2267.10 564.79,2267.10 C564.79,2267.10 564.72,2266.12 564.72,2266.12 C564.72,2266.12 483.74,2532.87 483.74,2532.87 C483.74,2532.87 484.89,2533.99 484.89,2533.99 C484.89,2533.99 208.64,2634.07 208.64,2634.07 C208.64,2634.07 179.15,2700.70 179.15,2700.70 C179.15,2700.70 259.96,2801.70 259.96,2801.70 C259.96,2801.70 324.95,2781.80 324.95,2781.80 C324.95,2781.80 528.70,2709.78 528.70,2709.78 C528.70,2709.78 779.35,2709.75 779.35,2709.75 C779.35,2709.75 981.51,2785.09 981.51,2785.09 C981.51,2785.09 1055.66,2792.34 1055.66,2792.34 C1055.66,2792.34 1128.07,2696.85 1128.07,2696.85 C1128.07,2696.85 1098.08,2634.03 1098.08,2634.03 C1098.08,2634.03 824.97,2535.30 824.97,2535.30 C824.97,2535.30 824.32,2534.53 824.32,2534.53 C824.32,2534.53 744.52,2268.20 744.52,2268.20 C744.52,2268.20 743.27,2267.75 743.27,2267.75 C743.27,2267.75 718.68,2268.09 718.68,2268.09 C718.68,2268.09 719.22,2246.85 719.22,2246.85 C779.11,2246.59 778.39,2175.61 722.51,2175.80 C722.51,2175.80 591.20,2174.58 591.20,2174.58 C530.04,2174.18 528.59,2247.22 591.21,2246.48 Z" fill="none" stroke="rgb(0, 0, 0)" stroke-width="4.00" stroke-opacity="1.00" stroke-linejoin="round"/>
<path d="M1039.94,1956.99 L959.46,2059.16" fill="none" stroke="rgb(0, 0, 0)" stroke-width="4.00" stroke-opacity="1.00" stroke-linejoin="round"/>
<path d="M1109.09,2009.42 L1035.89,2115.86" fill="none" stroke="rgb(0, 0, 0)" stroke-width="4.00" stroke-opacity="1.00" stroke-linejoin="round"/>
<path d="M1035.97,2115.65 L1036.13,2115.21" fill="none" stroke="rgb(0, 0, 0)" stroke-width="4.00" stroke-opacity="1.00" stroke-linejoin="round"/>
<path d="M1383.87,2012.89 L1460.85,2122.45" fill="none" stroke="rgb(0, 0, 0)" stroke-width="4.00" stroke-opacity="1.00" stroke-linejoin="round"/>
<path d="M1449.88,1960.11 L1532.39,2066.44" fill="none" stroke="rgb(0, 0, 0)" stroke-width="4.00" stroke-opacity="1.00" stroke-linejoin="round"/>
<path d="M839.39,2100.21 C839.05,2100.55 838.88,2100.71 838.88,2100.71 C838.88,2100.71 829.71,2174.61 829.71,2174.61 C829.71,2174.61 1006.93,2298.55 1006.93,2298.55 C1006.93,2298.55 1076.67,2271.32 1076.67,2271.32 C1076.67,2271.32 1123.37,2457.38 1123.37,2457.38 C1123.58,2520.26 1249.72,2517.47 1249.28,2459.42 C1250.57,2518.48 1372.27,2519.23 1371.51,2458.15 C1371.51,2458.15 1416.83,2273.87 1416.83,2273.87 C1416.83,2273.87 1490.81,2302.33 1490.81,2302.33 C1490.81,2302.33 1667.73,2175.86 1667.73,2175.86 C1667.73,2175.86 1656.75,2106.33 1656.75,2106.33 C1656.75,2106.33 1656.67,2106.25 1656.51,2106.09" fill="none" stroke="rgb(0, 0, 0)" stroke-width="4.00" stroke-opacity="1.00" stroke-linejoin="round"/>
<path d="M1460.51,1912.05 C1460.51,1912.05 1336.93,1998.54 1336.93,1998.54 C1336.93,1998.54 1311.90,1998.10 1311.90,1998.10 C1311.90,1998.10 1312.70,1977.15 1312.70,1977.15 C1372.05,1978.06 1373.65,1906.09 1313.21,1905.90 C1313.21,1905.90 1185.00,1904.14 1185.00,1904.14 C1122.30,1903.62 1120.71,1976.99 1184.45,1977.15 C1184.45,1977.15 1184.76,1996.87 1184.76,1996.87 C1184.76,1996.87 1156.35,1995.83 1156.35,1995.83 C1156.35,1995.83 1035.28,1908.09 1035.28,1908.09" fill="none" stroke="rgb(0, 0, 0)" stroke-width="4.00" stroke-opacity="1.00" stroke-linejoin="round"/>
<path d="M370.48,1273.31 L337.76,1178.59 L278.80,1166.50 L265.22,1079.02 L309.91,1034.19 L349.31,860.74 L418.72,848.10 L540.02,941.95 L552.66,1014.37 L562.23,1143.48 L563.39,1158.63 L577.53,1197.89 L591.51,1161.48 L562.76,1143.13" fill="none" stroke="rgb(0, 0, 0)" stroke-width="4.00" stroke-opacity="1.00" stroke-linejoin="miter"/>
<path d="M554.17,1030.83 L600.94,1014.50 L460.64,799.59 L642.88,754.30 L802.11,860.83 L841.17,1034.66 L887.69,1080.27 L868.78,1164.82 L818.06,1176.46 L779.22,1274.51" fill="none" stroke="rgb(0, 0, 0)" stroke-width="4.00" stroke-opacity="1.00" stroke-linejoin="miter"/>
<path d="M372.14,1274.70 C401.23,1324.00 745.18,1326.17 779.37,1273.91" fill="none" stroke="rgb(0, 0, 0)" stroke-width="4.00" stroke-opacity="1.00" stroke-linejoin="round"/>
<path d="M896.71,1189.58 C896.71,1189.58 886.34,1224.97 886.34,1224.97 C886.34,1224.97 848.45,1229.26 848.45,1229.26 C848.45,1229.26 849.88,1281.10 849.88,1281.10 C849.88,1281.10 887.42,1283.61 887.42,1283.61 C887.42,1283.61 896.00,1316.50 896.00,1316.50" fill="none" stroke="rgb(0, 0, 0)" stroke-width="4.00" stroke-opacity="1.00" stroke-linejoin="round"/>
<path d="M898.14,1187.07 C950.16,1159.07 993.48,1193.27 993.96,1241.42 C992.29,1287.66 946.01,1331.29 897.78,1316.86" fill="none" stroke="rgb(0, 0, 0)" stroke-width="4.00" stroke-opacity="1.00" stroke-linejoin="round"/>
<path d="M244.29,1181.58 C244.29,1181.58 254.66,1216.97 254.66,1216.97 C254.66,1216.97 292.55,1221.26 292.55,1221.26 C292.55,1221.26 291.12,1273.10 291.12,1273.10 C291.12,1273.10 253.58,1275.61 253.58,1275.61 C253.58,1275.61 245.00,1308.50 245.00,1308.50" fill="none" stroke="rgb(0, 0, 0)" stroke-width="4.00" stroke-opacity="1.00" stroke-linejoin="round"/>
<path d="M242.86,1179.07 C190.84,1151.07 147.52,1185.27 147.04,1233.42 C148.71,1279.66 194.99,1323.29 243.22,1308.86" fill="none" stroke="rgb(0, 0, 0)" stroke-width="4.00" stroke-opacity="1.00" stroke-linejoin="round"/>
<path d="M1462.94,1910.75 L1530.40,1898.73 L1669.95,2038.15 L1655.82,2105.08" fill="none" stroke="rgb(0, 0, 0)" stroke-width="4.00" stroke-opacity="1.00" stroke-linejoin="miter"/>
<path d="M839.34,2098.77 L826.01,2031.33 L972.59,1891.49 L1035.38,1907.46" fill="none" stroke="rgb(0, 0, 0)" stroke-width="4.00" stroke-opacity="1.00" stroke-linejoin="miter"/>
</g>
</svg>
