<?xml version="1.0" encoding="UTF-8" standalone="no"?>
<!DOCTYPE svg PUBLIC "-//W3C//DTD SVG 1.1//EN" "http://www.w3.org/Graphics/SVG/1.1/DTD/svg11.dtd">
<svg width="489.36" height="694.56" viewBox="0.00 0.00 2039.00 2894.00" xmlns="http://www.w3.org/2000/svg" xmlns:xlink="http://www.w3.org/1999/xlink">
<g stroke-linecap="round" transform="translate(20.00, -804.00)" id="pupil-preview-fill">
<path d="M301.64,1272.43 C327.12,1275.48 346.78,1301.73 340.40,1331.67 C335.59,1317.25 321.14,1314.28 312.85,1321.15 C307.99,1344.42 272.94,1336.63 275.71,1316.87 C266.32,1308.49 255.58,1307.86 246.78,1317.58 C247.75,1292.33 274.69,1268.50 301.64,1272.43 Z" fill="none" stroke="rgb(0, 0, 0)" stroke-width="4.00" stroke-opacity="1.00" stroke-linejoin="round"/>
<path d="M519.62,1271.91 C494.15,1274.95 474.49,1301.21 480.87,1331.14 C485.68,1316.72 500.13,1313.76 508.42,1320.63 C513.28,1343.90 548.33,1336.10 545.55,1316.34 C554.94,1307.96 565.69,1307.34 574.49,1317.05 C573.52,1291.80 546.57,1267.97 519.62,1271.91 Z" fill="none" stroke="rgb(0, 0, 0)" stroke-width="4.00" stroke-opacity="1.00" stroke-linejoin="round"/>
</g>
</svg>
