<?xml version="1.0" encoding="UTF-8" standalone="no"?>
<!DOCTYPE svg PUBLIC "-//W3C//DTD SVG 1.1//EN" "http://www.w3.org/Graphics/SVG/1.1/DTD/svg11.dtd">
<svg width="489.36" height="694.56" viewBox="0.00 0.00 2039.00 2894.00" xmlns="http://www.w3.org/2000/svg" xmlns:xlink="http://www.w3.org/1999/xlink">
<g stroke-linecap="round" id="01-stroke">
<path d="M574.62,2252.89 L589.62,2267.19" fill="none" stroke="rgb(0, 0, 0)" stroke-width="7.00" stroke-opacity="1.00" stroke-linejoin="round"/>
<path d="M589.96,2267.54 L721.77,2267.19" fill="none" stroke="rgb(0, 0, 0)" stroke-width="7.00" stroke-opacity="1.00" stroke-linejoin="round"/>
<path d="M721.43,2266.84 L736.77,2250.10" fill="none" stroke="rgb(0, 0, 0)" stroke-width="7.00" stroke-opacity="1.00" stroke-linejoin="round"/>
<path d="M553.35,2252.89 C570.32,2306.13 741.18,2305.58 760.13,2250.45" fill="none" stroke="rgb(0, 0, 0)" stroke-width="7.00" stroke-opacity="1.00" stroke-linejoin="round"/>
<path d="M1183.71,1991.68 L1244.21,2019.98" fill="none" stroke="rgb(0, 0, 0)" stroke-width="7.00" stroke-opacity="1.00" stroke-linejoin="round"/>
<path d="M1155.14,1993.88 L1206.84,2054.83" fill="none" stroke="rgb(0, 0, 0)" stroke-width="7.00" stroke-opacity="1.00" stroke-linejoin="round"/>
<path d="M1208.10,2056.93 L1245.05,2021.66" fill="none" stroke="rgb(0, 0, 0)" stroke-width="7.00" stroke-opacity="1.00" stroke-linejoin="round"/>
<path d="M1234.63,2031.20 L1232.65,2272.46" fill="none" stroke="rgb(0, 0, 0)" stroke-width="7.00" stroke-opacity="1.00" stroke-linejoin="round"/>
<path d="M1311.75,1990.76 L1248.79,2019.98" fill="none" stroke="rgb(0, 0, 0)" stroke-width="7.00" stroke-opacity="1.00" stroke-linejoin="round"/>
<path d="M1336.50,1997.74 L1286.16,2054.83" fill="none" stroke="rgb(0, 0, 0)" stroke-width="7.00" stroke-opacity="1.00" stroke-linejoin="round"/>
<path d="M1284.90,2056.93 L1247.95,2021.66" fill="none" stroke="rgb(0, 0, 0)" stroke-width="7.00" stroke-opacity="1.00" stroke-linejoin="round"/>
<path d="M1257.03,2031.20 L1257.33,2273.71" fill="none" stroke="rgb(0, 0, 0)" stroke-width="7.00" stroke-opacity="1.00" stroke-linejoin="round"/>
<path d="M1245.93,2033.44 C1247.32,2033.26 1250.55,2033.99 1251.68,2034.75 C1252.79,2035.54 1254.48,2038.22 1254.69,2039.51 C1254.86,2040.82 1254.02,2043.87 1253.20,2044.95 C1252.33,2046.00 1249.45,2047.64 1248.07,2047.87 C1246.68,2048.05 1243.45,2047.32 1242.31,2046.56 C1241.21,2045.77 1239.52,2043.09 1239.30,2041.80 C1239.13,2040.49 1239.98,2037.44 1240.80,2036.36 C1241.67,2035.31 1244.54,2033.67 1245.93,2033.44 Z" fill="none" stroke="rgb(0, 0, 0)" stroke-width="7.00" stroke-opacity="1.00" stroke-linejoin="round"/>
<path d="M1246.76,2106.77 C1248.07,2106.79 1250.97,2107.93 1251.91,2108.80 C1252.83,2109.70 1254.02,2112.45 1254.05,2113.70 C1254.02,2114.95 1252.83,2117.70 1251.91,2118.60 C1250.97,2119.47 1248.07,2120.61 1246.76,2120.63 C1245.44,2120.61 1242.54,2119.47 1241.60,2118.60 C1240.68,2117.70 1239.49,2114.95 1239.46,2113.70 C1239.49,2112.45 1240.68,2109.70 1241.60,2108.80 C1242.54,2107.93 1245.44,2106.79 1246.76,2106.77 Z" fill="none" stroke="rgb(0, 0, 0)" stroke-width="7.00" stroke-opacity="1.00" stroke-linejoin="round"/>
<path d="M1246.88,2180.18 C1248.13,2180.20 1250.88,2181.32 1251.78,2182.17 C1252.64,2183.06 1253.78,2185.76 1253.80,2186.99 C1253.78,2188.21 1252.64,2190.92 1251.78,2191.80 C1250.88,2192.65 1248.13,2193.77 1246.88,2193.79 C1245.63,2193.77 1242.88,2192.65 1241.98,2191.80 C1241.11,2190.92 1239.97,2188.21 1239.95,2186.99 C1239.97,2185.76 1241.11,2183.06 1241.98,2182.17 C1242.88,2181.32 1245.63,2180.20 1246.88,2180.18 Z" fill="none" stroke="rgb(0, 0, 0)" stroke-width="7.00" stroke-opacity="1.00" stroke-linejoin="round"/>
<path d="M1282.73,2091.48 L1342.65,2091.48 L1342.65,2112.29 L1282.73,2112.29 L1282.73,2091.48 Z" fill="none" stroke="rgb(0, 0, 0)" stroke-width="7.00" stroke-opacity="1.00" stroke-linejoin="miter"/>
</g>
</svg>
