<?xml version="1.0" encoding="UTF-8" standalone="no"?>
<!DOCTYPE svg PUBLIC "-//W3C//DTD SVG 1.1//EN" "http://www.w3.org/Graphics/SVG/1.1/DTD/svg11.dtd">
<svg width="489.36" height="694.56" viewBox="0.00 0.00 2039.00 2894.00" xmlns="http://www.w3.org/2000/svg" xmlns:xlink="http://www.w3.org/1999/xlink">
<g stroke-linecap="round" id="back-stroke">
<path d="M1213.00,466.31 C1113.97,489.09 1094.57,593.28 1176.53,657.98" fill="none" stroke="rgb(0, 0, 0)" stroke-width="4.00" stroke-opacity="1.00" stroke-linejoin="round"/>
<path d="M1322.70,655.33 C1322.64,648.60 1322.98,632.86 1326.93,622.37 C1332.78,637.50 1339.33,649.28 1348.85,658.03" fill="none" stroke="rgb(0, 0, 0)" stroke-width="4.00" stroke-opacity="1.00" stroke-linejoin="round"/>
<path d="M1675.00,466.31 C1774.03,489.09 1793.43,593.28 1711.47,657.98" fill="none" stroke="rgb(0, 0, 0)" stroke-width="4.00" stroke-opacity="1.00" stroke-linejoin="round"/>
<path d="M1565.30,654.72 C1565.33,647.69 1564.91,632.55 1561.07,622.37 C1555.22,637.50 1548.67,649.28 1539.15,658.03" fill="none" stroke="rgb(0, 0, 0)" stroke-width="4.00" stroke-opacity="1.00" stroke-linejoin="round"/>
<path d="M1215.00,849.69 C1116.50,827.03 1096.78,723.84 1177.21,659.05" fill="none" stroke="rgb(0, 0, 0)" stroke-width="4.00" stroke-opacity="1.00" stroke-linejoin="round"/>
<path d="M1322.70,661.69 C1322.68,668.88 1323.16,683.64 1326.93,693.63 C1332.54,679.14 1338.78,667.72 1347.69,659.12" fill="none" stroke="rgb(0, 0, 0)" stroke-width="4.00" stroke-opacity="1.00" stroke-linejoin="round"/>
<path d="M1675.00,849.69 C1773.50,827.03 1793.22,723.84 1712.79,659.05" fill="none" stroke="rgb(0, 0, 0)" stroke-width="4.00" stroke-opacity="1.00" stroke-linejoin="round"/>
<path d="M1565.30,661.14 C1565.34,667.98 1564.95,683.33 1561.07,693.63 C1555.46,679.14 1549.22,667.72 1540.31,659.12" fill="none" stroke="rgb(0, 0, 0)" stroke-width="4.00" stroke-opacity="1.00" stroke-linejoin="round"/>
<path d="M1218.00,849.71 L1673.38,849.71" fill="none" stroke="rgb(0, 0, 0)" stroke-width="4.00" stroke-opacity="1.00" stroke-linejoin="round"/>
<path d="M1214.45,466.21 L1147.54,428.99 L1171.14,270.02 L1251.55,250.50 L1451.31,132.57 L1642.24,249.99 L1711.70,271.36 L1734.04,425.35 L1678.69,466.21 L1678.69,466.22" fill="none" stroke="rgb(0, 0, 0)" stroke-width="4.00" stroke-opacity="1.00" stroke-linejoin="miter"/>
</g>
</svg>
