<?xml version="1.0" encoding="UTF-8" standalone="no"?>
<!DOCTYPE svg PUBLIC "-//W3C//DTD SVG 1.1//EN" "http://www.w3.org/Graphics/SVG/1.1/DTD/svg11.dtd">
<svg width="489.36" height="694.56" viewBox="0.00 0.00 2039.00 2894.00" xmlns="http://www.w3.org/2000/svg" xmlns:xlink="http://www.w3.org/1999/xlink">
<g stroke-linecap="round" id="back-02-stroke">
<path d="M1214.42,466.55 L1147.54,428.99 L1171.14,270.02 L1248.91,251.89 L1451.94,133.10 L1642.24,249.99 L1711.70,271.36 L1734.04,425.35 L1678.69,466.21 L1678.69,466.22" fill="none" stroke="rgb(0, 0, 0)" stroke-width="4.00" stroke-opacity="1.00" stroke-linejoin="miter"/>
<path d="M1213.29,466.87 L1215.00,466.87" fill="none" stroke="rgb(0, 0, 0)" stroke-width="4.00" stroke-opacity="1.00" stroke-linejoin="round"/>
<path d="M1228.91,465.86 L1230.31,466.13" fill="none" stroke="rgb(0, 0, 0)" stroke-width="4.00" stroke-opacity="1.00" stroke-linejoin="round"/>
<path d="M1666.41,466.35 L1667.29,465.60" fill="none" stroke="rgb(0, 0, 0)" stroke-width="4.00" stroke-opacity="1.00" stroke-linejoin="round"/>
<path d="M1675.84,467.23 L1676.03,467.23" fill="none" stroke="rgb(0, 0, 0)" stroke-width="4.00" stroke-opacity="1.00" stroke-linejoin="round"/>
<path d="M1214.67,467.01 C1189.20,610.55 1189.83,770.97 1221.71,863.57" fill="none" stroke="rgb(0, 0, 0)" stroke-width="4.00" stroke-opacity="1.00" stroke-linejoin="round"/>
<path d="M1255.07,862.76 C1250.60,798.87 1254.67,717.02 1259.74,665.70 C1265.03,745.39 1270.51,811.39 1290.92,863.81" fill="none" stroke="rgb(0, 0, 0)" stroke-width="4.00" stroke-opacity="1.00" stroke-linejoin="round"/>
<path d="M1598.35,864.09 C1620.03,816.02 1622.71,737.21 1628.31,670.85 C1631.52,738.45 1642.84,807.90 1632.65,864.91" fill="none" stroke="rgb(0, 0, 0)" stroke-width="4.00" stroke-opacity="1.00" stroke-linejoin="round"/>
<path d="M1662.71,863.76 C1697.77,771.81 1701.55,623.07 1675.91,466.66" fill="none" stroke="rgb(0, 0, 0)" stroke-width="4.00" stroke-opacity="1.00" stroke-linejoin="round"/>
<path d="M1214.67,1264.99 C1188.98,1120.21 1189.84,958.24 1222.54,866.03" fill="none" stroke="rgb(0, 0, 0)" stroke-width="4.00" stroke-opacity="1.00" stroke-linejoin="round"/>
<path d="M1255.12,868.31 C1250.56,932.34 1254.65,1014.73 1259.74,1066.30 C1265.10,985.52 1270.66,918.80 1291.77,866.04" fill="none" stroke="rgb(0, 0, 0)" stroke-width="4.00" stroke-opacity="1.00" stroke-linejoin="round"/>
<path d="M1597.49,866.04 C1619.96,913.92 1622.63,993.92 1628.31,1061.15 C1631.48,994.38 1642.57,925.81 1633.02,869.20" fill="none" stroke="rgb(0, 0, 0)" stroke-width="4.00" stroke-opacity="1.00" stroke-linejoin="round"/>
<path d="M1661.88,866.00 C1697.71,957.77 1701.76,1107.66 1675.91,1265.34" fill="none" stroke="rgb(0, 0, 0)" stroke-width="4.00" stroke-opacity="1.00" stroke-linejoin="round"/>
<path d="M1215.70,1264.95 L1675.93,1265.76" fill="none" stroke="rgb(0, 0, 0)" stroke-width="4.00" stroke-opacity="1.00" stroke-linejoin="round"/>
</g>
</svg>
