<?xml version="1.0" encoding="UTF-8" standalone="no"?>
<!DOCTYPE svg PUBLIC "-//W3C//DTD SVG 1.1//EN" "http://www.w3.org/Graphics/SVG/1.1/DTD/svg11.dtd">
<svg width="489.36" height="694.56" viewBox="0.00 0.00 2039.00 2894.00" xmlns="http://www.w3.org/2000/svg" xmlns:xlink="http://www.w3.org/1999/xlink">
<g stroke-linecap="round" id="04-stroke">
<path d="M216.60,134.35 C110.20,221.23 8.54,546.88 257.95,554.51 C231.66,461.28 254.12,358.73 297.68,291.52 C300.61,358.05 333.82,424.22 386.65,456.03 C386.65,456.03 407.97,417.47 407.97,417.47 C433.90,435.32 461.51,443.62 497.44,449.31 C501.65,393.44 504.19,357.13 523.28,295.59 C593.70,381.47 624.50,456.44 592.56,555.63 C828.42,542.02 747.49,231.13 634.52,136.53 C634.52,136.53 430.92,158.47 430.92,158.47 C430.92,158.47 216.60,134.35 216.60,134.35 Z" fill="none" stroke="rgb(0, 0, 0)" stroke-width="4.00" stroke-opacity="1.00" stroke-linejoin="round"/>
</g>
</svg>
